<svg width="50" height="50" viewBox="0 0 50 50" fill="none" xmlns="http://www.w3.org/2000/svg">
<path fill-rule="evenodd" clip-rule="evenodd" d="M0 24.9945C0 11.1883 11.194 6.10352e-05 25 6.10352e-05C38.8113 6.10352e-05 50 11.1883 50 24.9967C50 38.804 38.8113 50.0001 25 50.0001C11.194 49.9978 0.00107713 38.8018 0.00107713 24.9945" fill="#EA2427"/>
<path fill-rule="evenodd" clip-rule="evenodd" d="M13.5529 20.3625C13.5529 19.4933 13.2412 18.7502 12.6199 18.1387C12.0082 17.5165 11.2635 17.2075 10.3688 17.2075H7.19545V20.3614C7.19545 21.2296 7.49544 21.978 8.10715 22.6098C8.40121 22.9116 8.75349 23.1498 9.1424 23.31C9.5313 23.4701 9.94864 23.5487 10.3688 23.541C11.2635 23.541 12.0082 23.2331 12.6199 22.6109C13.2412 21.978 13.5518 21.2296 13.5518 20.3614L13.5529 20.3625ZM7.18055 14.7068V15.1152H10.3699C11.8699 15.1152 13.1571 15.6284 14.2231 16.6526C15.3008 17.6736 15.8423 18.9074 15.8423 20.3625C15.8423 21.8165 15.2997 23.0599 14.2231 24.0959C13.1444 25.1159 11.8635 25.6333 10.3688 25.6333C8.87949 25.6333 7.59757 25.1159 6.52098 24.0959C5.44864 23.0599 4.91779 21.8155 4.91779 20.3614V12.5001C5.53481 12.5001 6.06991 12.7203 6.50396 13.1586C6.95502 13.5831 7.17949 14.1059 7.17949 14.7068H7.18055ZM25.005 23.4961V20.3422C25.005 19.474 24.6944 18.731 24.072 18.1088C23.4614 17.4758 22.7167 17.1626 21.8274 17.1626C20.9369 17.1626 20.1816 17.4758 19.5646 18.1088C19.2693 18.3994 19.0358 18.7474 18.8783 19.1315C18.7209 19.5156 18.6427 19.9279 18.6486 20.3433C18.6486 21.206 18.954 21.9534 19.5646 22.5756C20.1816 23.1872 20.9369 23.4961 21.8263 23.4961H25.005ZM27.2923 20.3422V25.5884H21.8263C20.3369 25.5884 19.0497 25.0753 17.9731 24.0617C16.9061 23.0353 16.371 21.7973 16.371 20.3422C16.371 18.8882 16.9061 17.6437 17.9731 16.6237C19.0508 15.5888 20.3369 15.0703 21.8263 15.0703C23.3157 15.0703 24.5976 15.5888 25.6752 16.6237C26.7571 17.6437 27.2923 18.8882 27.2923 20.3422ZM27.2933 37.0827H25.0316V26.7271C25.654 26.7271 26.1784 26.9473 26.6242 27.3857C27.0688 27.8144 27.2933 28.3329 27.2933 28.9391V30.8903H30.2891C30.7082 30.897 31.1242 30.8163 31.5107 30.6533C31.8973 30.4902 32.246 30.2484 32.5348 29.943C33.1571 29.3155 33.2689 29.0385 33.4252 28.3436C33.4252 28.3436 33.5263 26.7271 35.7295 26.7271V27.7107C35.7295 28.5521 35.5306 29.3475 35.1337 30.0895C34.7487 30.8272 34.1962 31.4634 33.521 31.9466C34.1988 32.4295 34.752 33.068 35.1348 33.809C35.5271 34.531 35.7316 35.3407 35.7295 36.1633V37.0827H33.4635V36.1633C33.4635 35.3048 33.1571 34.5564 32.5348 33.9288C32.246 33.6238 31.8974 33.3822 31.5111 33.2194C31.1248 33.0565 30.709 32.9759 30.2901 32.9826H27.2933V37.0827ZM45.1891 31.9733C45.1891 32.8308 44.8784 33.5792 44.2561 34.2068C43.6391 34.8386 42.8891 35.0749 42.0114 35.0749C41.121 35.0749 40.3657 34.844 39.7486 34.2217C39.1274 33.5888 38.8167 32.8415 38.8167 31.9733V28.9391C38.8167 28.3329 38.5965 27.8144 38.1465 27.3857C37.9399 27.1727 37.6921 27.0045 37.4184 26.8912C37.1448 26.778 36.8509 26.7221 36.555 26.7271V31.9733C36.555 33.4274 37.0901 34.6718 38.1614 35.7068C39.2284 36.7331 40.5103 37.2452 42.0103 37.2452C43.4997 37.2452 44.7816 36.7321 45.8476 35.7068C46.9199 34.6718 47.4508 33.4263 47.4508 31.9733V26.7271C47.1533 26.7235 46.8581 26.7799 46.5827 26.893C46.3074 27.0062 46.0574 27.1737 45.8476 27.3857C45.6359 27.584 45.4678 27.8247 45.3542 28.0923C45.2407 28.3598 45.184 28.6483 45.188 28.9391V31.9733H45.1891Z" fill="#F7FAFB"/>
</svg>


